Coordinates
version=1
nRows=43
nColumns=12
inDegrees=yes

Units are S.I. units (second, meters, Newtons, ...)
Angles are in degrees

endheader
time	SC_y	SC_z	SC_x	AC_y	AC_z	AC_x	GH_y	GH_z	GH_yy	EL_x	PS_y
       0.0              -14.11          20.12          35.46          64.95         -15.53         -15.27          50.18          35.96         -99.85          133.7          33.76
   0.02421              -14.11          20.11          35.46          64.95         -15.53         -15.27          50.17          35.95         -99.82          133.7          33.77
   0.04843              -14.12          20.11          35.46          64.95         -15.53         -15.27          50.16          35.95         -99.78          133.7          33.78
   0.07264              -14.12          20.11          35.45          64.95         -15.53         -15.26          50.15          35.94         -99.75          133.7          33.79
   0.09686              -14.13          20.11          35.45          64.95         -15.53         -15.26          50.14          35.93          -99.7          133.7           33.8
    0.1211              -14.13           20.1          35.45          64.95         -15.53         -15.25          50.13          35.92         -99.66          133.7          33.82
    0.1453              -14.14           20.1          35.44          64.95         -15.52         -15.25          50.12          35.91         -99.61          133.7          33.83
    0.1695              -14.15           20.1          35.44          64.95         -15.52         -15.24          50.11           35.9         -99.56          133.7          33.84
    0.1937              -14.15           20.1          35.44          64.95         -15.52         -15.24          50.09          35.89         -99.51          133.7          33.86
    0.2179              -14.16          20.09          35.43          64.95         -15.52         -15.23          50.08          35.88         -99.45          133.7          33.88
    0.2421              -14.17          20.09          35.43          64.95         -15.52         -15.23          50.06          35.87         -99.39          133.7          33.89
    0.2664              -14.18          20.08          35.42          64.95         -15.52         -15.22          50.05          35.85         -99.33          133.7          33.91
    0.2906              -14.19          20.08          35.42          64.95         -15.52         -15.21          50.03          35.84         -99.26          133.6          33.93
    0.3148               -14.2          20.08          35.41          64.95         -15.52          -15.2          50.01          35.83         -99.18          133.6          33.95
     0.339              -14.21          20.07          35.41          64.95         -15.52          -15.2          49.99          35.81          -99.1          133.6          33.98
    0.3632              -14.22          20.07           35.4          64.96         -15.52         -15.19          49.96          35.79          -99.0          133.6           34.0
    0.3874              -14.24          20.06           35.4          64.96         -15.52         -15.18          49.94          35.77         -98.91          133.6          34.03
    0.4116              -14.25          20.05          35.39          64.96         -15.52         -15.17          49.91          35.75          -98.8          133.6          34.06
    0.4359              -14.27          20.05          35.38          64.96         -15.52         -15.15          49.88          35.73         -98.68          133.6           34.1
    0.4601              -14.29          20.04          35.37          64.96         -15.52         -15.14          49.85           35.7         -98.56          133.5          34.13
    0.4843               -14.3          20.03          35.36          64.96         -15.52         -15.13          49.81          35.67         -98.41          133.5          34.17
    0.5085              -14.33          20.02          35.35          64.96         -15.52         -15.11          49.77          35.64         -98.26          133.5          34.22
    0.5327              -14.35          20.01          35.34          64.96         -15.51         -15.09          49.73          35.61         -98.09          133.5          34.27
    0.5569              -14.38           20.0          35.33          64.96         -15.51         -15.07          49.68          35.57          -97.9          133.4          34.32
    0.5811              -14.41          19.99          35.31          64.96         -15.51         -15.05          49.63          35.53         -97.69          133.4          34.38
    0.6054              -14.44          19.97           35.3          64.96         -15.51         -15.03          49.57          35.48         -97.46          133.4          34.45
    0.6296              -14.47          19.96          35.28          64.96         -15.51          -15.0           49.5          35.43         -97.19          133.3          34.52
    0.6538              -14.51          19.94          35.26          64.96         -15.51         -14.97          49.43          35.37          -96.9          133.3          34.61
     0.678              -14.56          19.92          35.24          64.97          -15.5         -14.94          49.34          35.31         -96.56          133.2           34.7
    0.7022              -14.61           19.9          35.21          64.97          -15.5          -14.9          49.25          35.23         -96.18          133.1          34.81
    0.7264              -14.67          19.87          35.18          64.97          -15.5         -14.85          49.14          35.15         -95.75          133.1          34.93
    0.7506              -14.74          19.84          35.15          64.97         -15.49          -14.8          49.01          35.05         -95.26          133.0          35.08
    0.7749              -14.82          19.81          35.11          64.97         -15.49         -14.74          48.86          34.94         -94.68          132.9          35.24
    0.7991              -14.91          19.77          35.06          64.98         -15.48         -14.67          48.69           34.8         -94.02          132.8          35.43
    0.8233              -15.02          19.72          35.01          64.98         -15.48         -14.59          48.49          34.65         -93.24          132.7          35.65
    0.8475              -15.15          19.67          34.95          64.98         -15.47          -14.5          48.26          34.47         -92.32          132.5          35.92
    0.8717               -15.3           19.6          34.88          64.99         -15.46         -14.39          47.98          34.25         -91.23          132.3          36.23
    0.8959              -15.48          19.53          34.79          64.99         -15.46         -14.25          47.65          33.99         -89.92          132.1           36.6
    0.9201               -15.7          19.43          34.68           65.0         -15.44         -14.09          47.25          33.68         -88.33          131.8          37.06
    0.9444              -15.97          19.32          34.55          65.01         -15.43         -13.89          46.75           33.3          -86.4          131.5          37.61
    0.9686               -16.3          19.17          34.39          65.02         -15.41         -13.65          46.14          32.82         -84.01          131.1          38.29
    0.9928              -16.71           19.0          34.19          65.03         -15.39         -13.34          45.39          32.23         -81.03          130.6          39.14
     1.017              -17.23          18.77          33.93          65.05         -15.37         -12.95          44.43          31.49         -77.28          130.0          40.22
